<svg width="94" height="14" viewBox="0 0 94 14" fill="none" xmlns="http://www.w3.org/2000/svg">
<path d="M2.11737 11H0.524813L4.10322 1.0562H5.83659L9.415 11H7.82244L5.01118 2.8624H4.93349L2.11737 11ZM2.38442 7.10599H7.55054V8.36839H2.38442V7.10599ZM12.1862 1.0562V11H10.7344V1.0562H12.1862ZM14.1393 13.7967V3.54215H15.557V4.75114H15.6784C15.7626 4.59576 15.884 4.41612 16.0426 4.21219C16.2012 4.00826 16.4213 3.83023 16.7029 3.6781C16.9845 3.52273 17.3568 3.44504 17.8196 3.44504C18.4217 3.44504 18.959 3.59718 19.4316 3.90145C19.9042 4.20572 20.2748 4.64432 20.5435 5.21725C20.8154 5.79019 20.9514 6.47965 20.9514 7.28564C20.9514 8.09163 20.817 8.78271 20.5484 9.35888C20.2797 9.93182 19.9107 10.3737 19.4413 10.6844C18.972 10.9919 18.4363 11.1457 17.8342 11.1457C17.381 11.1457 17.0104 11.0696 16.7223 10.9175C16.4375 10.7653 16.2141 10.5873 16.0523 10.3834C15.8904 10.1794 15.7658 9.99817 15.6784 9.83957H15.591V13.7967H14.1393ZM15.5619 7.27107C15.5619 7.79545 15.638 8.2551 15.7901 8.65C15.9422 9.0449 16.1623 9.35403 16.4504 9.57738C16.7385 9.79749 17.0913 9.90754 17.5089 9.90754C17.9426 9.90754 18.3052 9.79263 18.5965 9.56281C18.8878 9.32975 19.1079 9.01415 19.2568 8.61601C19.409 8.21787 19.485 7.76956 19.485 7.27107C19.485 6.77906 19.4106 6.33722 19.2617 5.94556C19.116 5.55389 18.8959 5.24477 18.6014 5.01818C18.31 4.7916 17.9459 4.67831 17.5089 4.67831C17.0881 4.67831 16.732 4.78674 16.4407 5.00362C16.1526 5.22049 15.9341 5.52314 15.7852 5.91157C15.6363 6.3 15.5619 6.75317 15.5619 7.27107ZM24.0297 6.5719V11H22.5779V1.0562H24.0102V4.75599H24.1025C24.2773 4.35461 24.5443 4.03578 24.9036 3.79948C25.2629 3.56319 25.7323 3.44504 26.3117 3.44504C26.8231 3.44504 27.2698 3.55024 27.6518 3.76064C28.037 3.97104 28.3348 4.28502 28.5452 4.70258C28.7588 5.11691 28.8656 5.63481 28.8656 6.2563V11H27.4139V6.4311C27.4139 5.88406 27.2731 5.46002 26.9914 5.15899C26.7098 4.85472 26.3182 4.70258 25.8164 4.70258C25.4733 4.70258 25.1658 4.77541 24.8939 4.92107C24.6253 5.06674 24.4132 5.28037 24.2579 5.56198C24.1057 5.84036 24.0297 6.177 24.0297 6.5719ZM32.9733 11.1651C32.5007 11.1651 32.0734 11.0777 31.6914 10.9029C31.3095 10.7249 31.0068 10.4675 30.7835 10.1309C30.5634 9.79425 30.4533 9.38154 30.4533 8.89277C30.4533 8.47197 30.5342 8.12562 30.6961 7.85372C30.8579 7.58182 31.0764 7.36656 31.3516 7.20795C31.6267 7.04935 31.9342 6.92958 32.2741 6.84866C32.614 6.76773 32.9603 6.70623 33.3131 6.66415C33.7598 6.61236 34.1224 6.57028 34.4007 6.53791C34.6791 6.50231 34.8814 6.44566 35.0077 6.36798C35.1339 6.29029 35.197 6.16405 35.197 5.98926V5.95527C35.197 5.53123 35.0773 5.20269 34.8377 4.96963C34.6014 4.73657 34.2486 4.62004 33.7793 4.62004C33.2905 4.62004 32.9053 4.72848 32.6237 4.94535C32.3453 5.15899 32.1527 5.3969 32.0459 5.65909L30.6815 5.34835C30.8434 4.89518 31.0797 4.52941 31.3904 4.25103C31.7044 3.96942 32.0653 3.7655 32.4732 3.63926C32.881 3.50978 33.3099 3.44504 33.7598 3.44504C34.0576 3.44504 34.3732 3.48065 34.7066 3.55186C35.0433 3.61984 35.3572 3.74607 35.6486 3.93058C35.9431 4.11508 36.1843 4.37889 36.372 4.722C36.5598 5.06188 36.6536 5.50372 36.6536 6.04752V11H35.2359V9.98037H35.1776C35.0837 10.1681 34.9429 10.3526 34.7552 10.5339C34.5674 10.7152 34.3263 10.8657 34.0317 10.9854C33.7372 11.1052 33.3843 11.1651 32.9733 11.1651ZM33.2889 9.99979C33.6902 9.99979 34.0334 9.92049 34.3182 9.76188C34.6063 9.60327 34.8248 9.39611 34.9737 9.14039C35.1258 8.88144 35.2019 8.60468 35.2019 8.31012V7.34876C35.1501 7.40055 35.0497 7.4491 34.9008 7.49442C34.7552 7.5365 34.5885 7.57373 34.4007 7.6061C34.213 7.63523 34.0301 7.66274 33.8521 7.68864C33.6741 7.71129 33.5252 7.73072 33.4054 7.7469C33.1238 7.78251 32.8664 7.84239 32.6334 7.92655C32.4036 8.01071 32.2191 8.13209 32.0799 8.2907C31.9439 8.44607 31.8759 8.65324 31.8759 8.91219C31.8759 9.27149 32.0087 9.54339 32.2741 9.72789C32.5395 9.90916 32.8778 9.99979 33.2889 9.99979ZM50.5813 4.28988H49.0664C49.0081 3.96618 48.8997 3.68134 48.7411 3.43533C48.5825 3.18933 48.3883 2.98054 48.1584 2.80899C47.9286 2.63743 47.6713 2.50795 47.3864 2.42056C47.1048 2.33316 46.8054 2.28946 46.4882 2.28946C45.9153 2.28946 45.4022 2.43351 44.949 2.72159C44.4991 3.00968 44.143 3.43209 43.8809 3.98884C43.6219 4.54559 43.4924 5.22534 43.4924 6.0281C43.4924 6.83733 43.6219 7.52032 43.8809 8.07707C44.143 8.63382 44.5007 9.05461 44.9539 9.33946C45.4071 9.62431 45.9169 9.76674 46.4833 9.76674C46.7973 9.76674 47.0951 9.72466 47.3767 9.6405C47.6616 9.5531 47.9189 9.42524 48.1487 9.25692C48.3785 9.0886 48.5728 8.88306 48.7314 8.64029C48.8932 8.39428 49.0049 8.11267 49.0664 7.79545L50.5813 7.80031C50.5003 8.28908 50.3434 8.73902 50.1103 9.1501C49.8805 9.55795 49.5843 9.91078 49.2218 10.2086C48.8625 10.5031 48.4514 10.7313 47.9885 10.8932C47.5256 11.055 47.0207 11.136 46.4736 11.136C45.6126 11.136 44.8455 10.932 44.1722 10.5242C43.4989 10.1131 42.968 9.52559 42.5796 8.76167C42.1944 7.99776 42.0018 7.08657 42.0018 6.0281C42.0018 4.96639 42.196 4.0552 42.5845 3.29452C42.9729 2.53061 43.5038 1.94473 44.177 1.53688C44.8503 1.12579 45.6158 0.920248 46.4736 0.920248C47.0012 0.920248 47.4932 0.996316 47.9497 1.14845C48.4093 1.29735 48.822 1.51746 49.1878 1.80878C49.5535 2.09687 49.8562 2.44969 50.0957 2.86725C50.3353 3.28158 50.4971 3.75579 50.5813 4.28988ZM53.7118 6.5719V11H52.26V1.0562H53.6923V4.75599H53.7846C53.9594 4.35461 54.2264 4.03578 54.5857 3.79948C54.945 3.56319 55.4144 3.44504 55.9938 3.44504C56.5052 3.44504 56.9519 3.55024 57.3339 3.76064C57.7191 3.97104 58.0169 4.28502 58.2273 4.70258C58.4409 5.11691 58.5477 5.63481 58.5477 6.2563V11H57.096V6.4311C57.096 5.88406 56.9552 5.46002 56.6735 5.15899C56.3919 4.85472 56.0003 4.70258 55.4985 4.70258C55.1554 4.70258 54.8479 4.77541 54.576 4.92107C54.3074 5.06674 54.0953 5.28037 53.94 5.56198C53.7878 5.84036 53.7118 6.177 53.7118 6.5719ZM62.6554 11.1651C62.1828 11.1651 61.7555 11.0777 61.3735 10.9029C60.9916 10.7249 60.6889 10.4675 60.4656 10.1309C60.2455 9.79425 60.1354 9.38154 60.1354 8.89277C60.1354 8.47197 60.2163 8.12562 60.3782 7.85372C60.54 7.58182 60.7585 7.36656 61.0337 7.20795C61.3088 7.04935 61.6163 6.92958 61.9562 6.84866C62.2961 6.76773 62.6424 6.70623 62.9952 6.66415C63.4419 6.61236 63.8045 6.57028 64.0828 6.53791C64.3612 6.50231 64.5635 6.44566 64.6898 6.36798C64.816 6.29029 64.8791 6.16405 64.8791 5.98926V5.95527C64.8791 5.53123 64.7594 5.20269 64.5198 4.96963C64.2835 4.73657 63.9307 4.62004 63.4614 4.62004C62.9726 4.62004 62.5874 4.72848 62.3058 4.94535C62.0274 5.15899 61.8348 5.3969 61.728 5.65909L60.3636 5.34835C60.5255 4.89518 60.7618 4.52941 61.0725 4.25103C61.3865 3.96942 61.7474 3.7655 62.1553 3.63926C62.5631 3.50978 62.992 3.44504 63.4419 3.44504C63.7397 3.44504 64.0553 3.48065 64.3887 3.55186C64.7254 3.61984 65.0394 3.74607 65.3307 3.93058C65.6252 4.11508 65.8664 4.37889 66.0541 4.722C66.2419 5.06188 66.3357 5.50372 66.3357 6.04752V11H64.918V9.98037H64.8597C64.7658 10.1681 64.625 10.3526 64.4373 10.5339C64.2495 10.7152 64.0084 10.8657 63.7138 10.9854C63.4193 11.1052 63.0665 11.1651 62.6554 11.1651ZM62.971 9.99979C63.3723 9.99979 63.7155 9.92049 64.0003 9.76188C64.2884 9.60327 64.5069 9.39611 64.6558 9.14039C64.8079 8.88144 64.884 8.60468 64.884 8.31012V7.34876C64.8322 7.40055 64.7318 7.4491 64.5829 7.49442C64.4373 7.5365 64.2706 7.57373 64.0828 7.6061C63.8951 7.63523 63.7122 7.66274 63.5342 7.68864C63.3562 7.71129 63.2073 7.73072 63.0875 7.7469C62.8059 7.78251 62.5485 7.84239 62.3155 7.92655C62.0857 8.01071 61.9012 8.13209 61.762 8.2907C61.626 8.44607 61.558 8.65324 61.558 8.91219C61.558 9.27149 61.6908 9.54339 61.9562 9.72789C62.2216 9.90916 62.5599 9.99979 62.971 9.99979ZM68.2694 13.7967V3.54215H69.6872V4.75114H69.8085C69.8927 4.59576 70.0141 4.41612 70.1727 4.21219C70.3313 4.00826 70.5514 3.83023 70.833 3.6781C71.1146 3.52273 71.4869 3.44504 71.9498 3.44504C72.5518 3.44504 73.0892 3.59718 73.5617 3.90145C74.0343 4.20572 74.405 4.64432 74.6736 5.21725C74.9455 5.79019 75.0815 6.47965 75.0815 7.28564C75.0815 8.09163 74.9471 8.78271 74.6785 9.35888C74.4098 9.93182 74.0408 10.3737 73.5715 10.6844C73.1021 10.9919 72.5664 11.1457 71.9643 11.1457C71.5112 11.1457 71.1405 11.0696 70.8524 10.9175C70.5676 10.7653 70.3442 10.5873 70.1824 10.3834C70.0206 10.1794 69.8959 9.99817 69.8085 9.83957H69.7211V13.7967H68.2694ZM69.692 7.27107C69.692 7.79545 69.7681 8.2551 69.9202 8.65C70.0723 9.0449 70.2925 9.35403 70.5805 9.57738C70.8686 9.79749 71.2215 9.90754 71.639 9.90754C72.0728 9.90754 72.4353 9.79263 72.7266 9.56281C73.0179 9.32975 73.2381 9.01415 73.3869 8.61601C73.5391 8.21787 73.6152 7.76956 73.6152 7.27107C73.6152 6.77906 73.5407 6.33722 73.3918 5.94556C73.2461 5.55389 73.026 5.24477 72.7315 5.01818C72.4402 4.7916 72.076 4.67831 71.639 4.67831C71.2182 4.67831 70.8622 4.78674 70.5708 5.00362C70.2827 5.22049 70.0643 5.52314 69.9154 5.91157C69.7665 6.3 69.692 6.75317 69.692 7.27107ZM80.1893 3.54215V4.70744H76.1157V3.54215H80.1893ZM77.2081 1.75537H78.6599V8.81023C78.6599 9.09184 78.702 9.30386 78.7861 9.44628C78.8703 9.58547 78.9787 9.68096 79.1114 9.73275C79.2474 9.7813 79.3947 9.80558 79.5533 9.80558C79.6698 9.80558 79.7718 9.79749 79.8592 9.7813C79.9466 9.76512 80.0145 9.75217 80.0631 9.74246L80.3253 10.9417C80.2411 10.9741 80.1213 11.0065 79.966 11.0388C79.8106 11.0744 79.6164 11.0939 79.3833 11.0971C79.0014 11.1036 78.6453 11.0356 78.3152 10.8932C77.985 10.7508 77.7179 10.5306 77.514 10.2329C77.3101 9.93506 77.2081 9.56119 77.2081 9.11126V1.75537ZM84.9294 11.1505C84.1946 11.1505 83.5618 10.9935 83.0309 10.6795C82.5033 10.3623 82.0955 9.91725 81.8074 9.34432C81.5225 8.76815 81.3801 8.09325 81.3801 7.31963C81.3801 6.55572 81.5225 5.88244 81.8074 5.29979C82.0955 4.71715 82.4968 4.26236 83.0115 3.93543C83.5294 3.60851 84.1347 3.44504 84.8274 3.44504C85.2482 3.44504 85.6561 3.51464 86.051 3.65382C86.4459 3.79301 86.8003 4.0115 87.1143 4.3093C87.4283 4.60709 87.6759 4.99391 87.8572 5.46973C88.0384 5.94232 88.1291 6.51687 88.1291 7.19339V7.70806H82.2007V6.62045H86.7064C86.7064 6.2385 86.6288 5.90024 86.4734 5.60568C86.318 5.30789 86.0995 5.07321 85.8179 4.90165C85.5395 4.7301 85.2126 4.64432 84.8371 4.64432C84.4293 4.64432 84.0732 4.74466 83.7689 4.94535C83.4679 5.1428 83.2349 5.40176 83.0698 5.72221C82.9079 6.03943 82.827 6.38416 82.827 6.75641V7.6061C82.827 8.10458 82.9144 8.52862 83.0892 8.8782C83.2672 9.22779 83.5149 9.49483 83.8321 9.67934C84.1493 9.86061 84.5199 9.95124 84.9439 9.95124C85.2191 9.95124 85.4699 9.9124 85.6965 9.83471C85.9231 9.75379 86.1189 9.63402 86.284 9.47541C86.4491 9.3168 86.5754 9.12097 86.6628 8.88791L88.0368 9.13554C87.9268 9.54015 87.7293 9.89459 87.4445 10.1989C87.1629 10.4999 86.8084 10.7346 86.3811 10.9029C85.9571 11.068 85.4732 11.1505 84.9294 11.1505ZM89.7398 11V3.54215H91.143V4.72686H91.2207C91.3567 4.32548 91.5962 4.00988 91.9393 3.78006C92.2857 3.547 92.6773 3.43048 93.1143 3.43048C93.205 3.43048 93.3118 3.43371 93.4348 3.44019C93.561 3.44666 93.6597 3.45475 93.731 3.46446V4.8531C93.6727 4.83691 93.5691 4.81911 93.4202 4.79969C93.2713 4.77703 93.1224 4.7657 92.9735 4.7657C92.6304 4.7657 92.3245 4.83853 92.0559 4.98419C91.7904 5.12662 91.58 5.32569 91.4247 5.5814C91.2693 5.83388 91.1916 6.12197 91.1916 6.44566V11H89.7398Z" fill="#888888"/>
</svg>
